<svg width="28" height="28" viewBox="0 0 28 28" fill="none" xmlns="http://www.w3.org/2000/svg">
<path d="M8.50416 5.72555C12.1612 5.40765 15.839 5.40765 19.4961 5.72555L21.258 5.87871C22.431 5.98067 23.4355 6.68029 23.956 7.68103C24.0226 7.80905 23.9727 7.96406 23.85 8.04001L16.5397 12.5654C14.9719 13.536 12.995 13.5564 11.4074 12.6183L4.04832 8.26971C3.92942 8.19946 3.87485 8.05484 3.92843 7.92755C4.40461 6.79639 5.47518 5.98885 6.74222 5.87871L8.50416 5.72555Z" fill="black"/>
<path d="M3.92244 10.228C3.74048 10.1205 3.50831 10.2362 3.4871 10.4465C3.19108 13.3814 3.26273 16.3441 3.70204 19.2656C3.93364 20.8057 5.19062 21.9864 6.74222 22.1213L8.50416 22.2744C12.1612 22.5923 15.839 22.5923 19.4961 22.2744L21.258 22.1213C22.8096 21.9864 24.0666 20.8057 24.2982 19.2656C24.7503 16.259 24.813 13.2087 24.4863 10.19C24.4634 9.97822 24.2273 9.86465 24.0462 9.97676L17.4609 14.0534C15.3397 15.3665 12.665 15.3941 10.5172 14.1249L3.92244 10.228Z" fill="black"/>
</svg>
