<svg width="28" height="28" viewBox="0 0 28 28" fill="none" xmlns="http://www.w3.org/2000/svg">
<path fill-rule="evenodd" clip-rule="evenodd" d="M23.9521 5.28538C24.2938 4.94367 24.2938 4.38965 23.9521 4.04794C23.6104 3.70623 23.0564 3.70623 22.7147 4.04794L4.04803 22.7146C3.70632 23.0563 3.70632 23.6103 4.04803 23.952C4.38974 24.2938 4.94376 24.2938 5.28547 23.952L8.82632 20.4112C10.3638 21.1204 12.1239 21.5833 14.0001 21.5833C17.0541 21.5833 19.8007 20.3567 21.7799 18.8377C22.7707 18.0773 23.5837 17.2327 24.1542 16.4107C24.7137 15.6044 25.0834 14.7565 25.0834 14C25.0834 13.2434 24.7137 12.3956 24.1542 11.5893C23.5837 10.7673 22.7707 9.92271 21.7799 9.16224C21.4642 8.91994 21.1289 8.68508 20.7761 8.46146L23.9521 5.28538ZM17.6502 11.5873L16.3693 12.8683C16.5332 13.2109 16.6251 13.5947 16.6251 14C16.6251 15.4497 15.4498 16.625 14.0001 16.625C13.5948 16.625 13.211 16.5332 12.8683 16.3692L11.5874 17.6501C12.279 18.1082 13.1084 18.375 14.0001 18.375C16.4163 18.375 18.3751 16.4162 18.3751 14C18.3751 13.1083 18.1083 12.2789 17.6502 11.5873Z" fill="black"/>
<path d="M14.8032 9.69854C14.8869 9.71407 14.9735 9.68916 15.0337 9.62896L17.3726 7.29008C17.5049 7.15773 17.4501 6.93274 17.27 6.88147C16.2389 6.58783 15.141 6.41666 14.0001 6.41666C10.946 6.41666 8.19943 7.64327 6.2203 9.16224C5.22945 9.92271 4.41642 10.7673 3.84599 11.5893C3.28642 12.3956 2.91675 13.2434 2.91675 14C2.91675 14.7565 3.28642 15.6044 3.84599 16.4107C4.33866 17.1206 5.01228 17.8474 5.82514 18.5223C5.92323 18.6037 6.06696 18.5957 6.15711 18.5055L9.62905 15.0336C9.68925 14.9734 9.71416 14.8868 9.69863 14.8031C9.65033 14.5427 9.62508 14.2743 9.62508 14C9.62508 11.5837 11.5838 9.62499 14.0001 9.62499C14.2744 9.62499 14.5428 9.65024 14.8032 9.69854Z" fill="black"/>
</svg>
