<svg width="307" height="13" viewBox="0 0 307 13" fill="none" xmlns="http://www.w3.org/2000/svg">
<path d="M5.41955 8.57042V9.80276H3.37497C2.9922 9.80276 2.68878 9.79809 2.46471 9.78876C2.24999 9.77009 1.97924 9.71407 1.65248 9.62071C1.32573 9.51802 1.05032 9.36864 0.826252 9.17259C0.480822 8.85516 0.256759 8.47706 0.154063 8.03827C0.0513673 7.59014 1.95409e-05 7.06733 1.95409e-05 6.46982V2.38486e-06H1.31639V6.44182C1.31639 6.9833 1.37707 7.40809 1.49844 7.71618C1.74118 8.28567 2.24999 8.57042 3.02487 8.57042H5.41955ZM7.38601 3.96312C8.03952 3.28159 8.85642 2.94083 9.8367 2.94083C10.3128 2.94083 10.7563 3.03419 11.1671 3.22091C11.5872 3.39829 11.9513 3.6457 12.2594 3.96312C12.5768 4.28054 12.8242 4.65398 13.0016 5.08343C13.179 5.50355 13.2677 5.95635 13.2677 6.44182C13.2677 6.92729 13.179 7.38475 13.0016 7.8142C12.8335 8.23432 12.5955 8.60309 12.2874 8.92051C11.9793 9.23794 11.6152 9.49001 11.1951 9.67673C10.775 9.85411 10.3222 9.9428 9.8367 9.9428C9.34189 9.9428 8.88443 9.85411 8.46431 9.67673C8.05353 9.49001 7.69409 9.23794 7.38601 8.92051C7.07792 8.60309 6.83518 8.23432 6.6578 7.8142C6.48975 7.38475 6.40573 6.92729 6.40573 6.44182C6.40573 5.4522 6.73249 4.62597 7.38601 3.96312ZM9.8367 4.11716C9.18318 4.11716 8.6557 4.33189 8.25425 4.76134C7.86214 5.1908 7.66608 5.75096 7.66608 6.44182C7.66608 7.13268 7.86214 7.69284 8.25425 8.12229C8.6557 8.55174 9.18318 8.76647 9.8367 8.76647C10.4995 8.76647 11.027 8.55174 11.4191 8.12229C11.8113 7.6835 12.0073 7.12334 12.0073 6.44182C12.0073 5.76029 11.8113 5.2048 11.4191 4.77535C11.027 4.33656 10.4995 4.11716 9.8367 4.11716ZM17.862 9.80276C16.9471 9.80276 16.1629 9.49468 15.5094 8.8785C14.8559 8.26233 14.5291 7.47344 14.5291 6.51184C14.5291 5.5409 14.8559 4.72867 15.5094 4.07515C16.1722 3.4123 16.9891 3.08087 17.9601 3.08087H21.251V9.60671C21.251 10.0268 21.195 10.4049 21.083 10.741C20.9803 11.0771 20.8309 11.3619 20.6348 11.5953C20.4388 11.8287 20.2614 12.0107 20.1027 12.1414C19.944 12.2721 19.7526 12.4075 19.5285 12.5475C18.9497 12.8463 18.2448 12.9957 17.4139 12.9957H15.8455V11.8193H17.2879C18.1095 11.8193 18.6929 11.7166 19.0384 11.5112C19.6732 11.1565 19.9906 10.5683 19.9906 9.74675V4.2572H17.9601C17.2972 4.2572 16.7697 4.46259 16.3776 4.87337C15.9855 5.28416 15.7895 5.83031 15.7895 6.51184C15.7895 7.16535 15.9902 7.6835 16.3916 8.06627C16.8024 8.43971 17.2926 8.62643 17.862 8.62643C18.4782 8.62643 19.0197 8.45838 19.4865 8.12229V9.38264C18.9824 9.66272 18.4409 9.80276 17.862 9.80276ZM28.0883 9.80276H26.856V4.2572H25.7076L26.2678 3.08087H28.0883V9.80276ZM26.8 1.68048C26.6786 1.52176 26.6179 1.34905 26.6179 1.16233C26.6179 0.975611 26.6786 0.807563 26.8 0.658188C26.9213 0.499477 27.108 0.420121 27.3601 0.420121C27.6122 0.420121 27.7989 0.499477 27.9203 0.658188C28.0416 0.807563 28.1023 0.975611 28.1023 1.16233C28.1023 1.34905 28.0416 1.52176 27.9203 1.68048C27.7989 1.82985 27.6122 1.90454 27.3601 1.90454C27.108 1.90454 26.9213 1.82985 26.8 1.68048ZM30.0303 3.08087H32.453C33.4892 3.08087 34.2315 3.23491 34.6796 3.543C35.081 3.81374 35.3331 4.1405 35.4358 4.52328C35.5478 4.89671 35.6038 5.39152 35.6038 6.00769V9.80276H34.3715V6.0217C34.3715 5.85365 34.3668 5.71361 34.3575 5.60158C34.3482 5.48021 34.3155 5.33084 34.2595 5.15345C34.2034 4.96673 34.1241 4.81736 34.0214 4.70533C33.9187 4.58396 33.7693 4.48126 33.5733 4.39724C33.3772 4.30388 33.1391 4.2572 32.8591 4.2572H31.2626V9.80276H30.0303V3.08087ZM39.8587 4.2572L42.3654 1.7505V3.08087H44.256V4.2572H42.3654V7.14201C42.3654 7.46877 42.4168 7.73952 42.5195 7.95424C42.6315 8.16897 42.7902 8.32301 42.9956 8.41637C43.201 8.5004 43.3924 8.55641 43.5698 8.58442C43.7565 8.61243 43.9852 8.62643 44.256 8.62643V9.80276C43.1823 9.80276 42.3888 9.59737 41.8753 9.18659C41.3618 8.77581 41.1051 8.09428 41.1051 7.14201V4.2572H39.8587ZM46.3618 3.96312C47.0153 3.28159 47.8322 2.94083 48.8125 2.94083C49.2886 2.94083 49.7321 3.03419 50.1429 3.22091C50.563 3.39829 50.9271 3.6457 51.2352 3.96312C51.5526 4.28054 51.8 4.65398 51.9774 5.08343C52.1548 5.50355 52.2435 5.95635 52.2435 6.44182C52.2435 6.92729 52.1548 7.38475 51.9774 7.8142C51.8094 8.23432 51.5713 8.60309 51.2632 8.92051C50.9551 9.23794 50.591 9.49001 50.1709 9.67673C49.7508 9.85411 49.298 9.9428 48.8125 9.9428C48.3177 9.9428 47.8602 9.85411 47.4401 9.67673C47.0293 9.49001 46.6699 9.23794 46.3618 8.92051C46.0537 8.60309 45.811 8.23432 45.6336 7.8142C45.4656 7.38475 45.3815 6.92729 45.3815 6.44182C45.3815 5.4522 45.7083 4.62597 46.3618 3.96312ZM48.8125 4.11716C48.159 4.11716 47.6315 4.33189 47.2301 4.76134C46.838 5.1908 46.6419 5.75096 46.6419 6.44182C46.6419 7.13268 46.838 7.69284 47.2301 8.12229C47.6315 8.55174 48.159 8.76647 48.8125 8.76647C49.4754 8.76647 50.0028 8.55174 50.395 8.12229C50.7871 7.6835 50.9831 7.12334 50.9831 6.44182C50.9831 5.76029 50.7871 5.2048 50.395 4.77535C50.0028 4.33656 49.4754 4.11716 48.8125 4.11716ZM57.0535 3.08087H63.2292C63.8921 3.08087 64.4196 3.20691 64.8117 3.45898C65.2131 3.71105 65.4745 4.03781 65.5959 4.43925C65.7266 4.8407 65.792 5.3215 65.792 5.88166V9.80276H64.5596V5.88166C64.5596 5.15345 64.3402 4.67265 63.9014 4.43925C63.6774 4.31788 63.2246 4.2572 62.543 4.2572H61.9689V9.80276H60.7365V4.2572H58.2859V9.80276H57.0535V3.08087ZM71.2118 5.85365V7.11401C70.8571 6.84326 70.4229 6.70789 69.9095 6.70789C69.4707 6.70789 69.1299 6.79658 68.8872 6.97397C68.6444 7.14201 68.5231 7.38475 68.5231 7.70217C68.5231 8.31834 68.9805 8.62643 69.8954 8.62643H71.744V5.95168C71.744 4.82203 71.1931 4.2572 70.0915 4.2572H67.8509V3.08087H70.1615C71.0671 3.08087 71.7626 3.30493 72.2481 3.75306C72.7336 4.20119 72.9763 4.84537 72.9763 5.6856V9.80276H69.8534C69.0599 9.80276 68.4297 9.62538 67.9629 9.27061C67.4961 8.91585 67.2627 8.3977 67.2627 7.71618C67.2627 7.03465 67.5101 6.5165 68.0049 6.16174C68.4997 5.80697 69.1206 5.62959 69.8674 5.62959C70.2876 5.62959 70.7357 5.70428 71.2118 5.85365ZM78.3809 3.08087H79.7392L78.0448 6.00769C79.1931 6.31578 79.7672 7.24471 79.7672 8.79448V9.80276H78.5349V8.78047C78.5349 8.15497 78.3482 7.67416 77.9747 7.33807C77.6106 6.99264 77.0878 6.81992 76.4063 6.81992C76.1916 6.81992 75.9722 6.83393 75.7481 6.86193V9.80276H74.5158V2.38486e-06H75.7481V5.75562C76.1402 5.69961 76.5323 5.69961 76.9244 5.75562L78.3809 3.08087ZM84.5351 2.94083C86.1223 3.00618 86.9158 3.66437 86.9158 4.91539C86.9158 6.47449 85.8935 7.25405 83.849 7.25405H83.2748V6.17574H83.947C84.5725 6.17574 85.0066 6.08238 85.2493 5.89566C85.4921 5.69961 85.6134 5.37752 85.6134 4.92939C85.6134 4.63998 85.5061 4.42525 85.2914 4.28521C85.0766 4.13583 84.8012 4.06115 84.4651 4.06115C83.8023 4.06115 83.2795 4.29455 82.8967 4.76134C82.5232 5.22814 82.3365 5.7883 82.3365 6.44182C82.3365 7.13268 82.5373 7.69284 82.9387 8.12229C83.3495 8.55174 83.8816 8.76647 84.5351 8.76647C85.1233 8.76647 85.6041 8.62176 85.9776 8.33235L86.8178 9.15858C86.1736 9.6814 85.4127 9.9428 84.5351 9.9428C83.4708 9.9428 82.6213 9.63005 81.9864 9.00454C81.3516 8.37903 81.0342 7.57147 81.0342 6.58186C81.0342 5.48021 81.3469 4.58863 81.9724 3.9071C82.5979 3.22558 83.4522 2.90349 84.5351 2.94083ZM91.373 3.08087H92.6054V6.59586C92.6054 7.35207 92.7221 7.87955 92.9555 8.17831C93.1889 8.47706 93.6183 8.62643 94.2438 8.62643H95.7142V3.08087H96.9466V9.46667C96.9466 10.6337 96.6385 11.5112 96.0223 12.0994C95.4155 12.6969 94.4585 12.9957 93.1515 12.9957H92.1432V11.8193H93.0255C94.734 11.8193 95.6302 11.1471 95.7142 9.80276H94.5379C93.3149 9.80276 92.4793 9.58804 92.0312 9.15858C91.5924 8.72913 91.373 7.85621 91.373 6.53984V3.08087ZM99.3279 3.96312C99.9814 3.28159 100.798 2.94083 101.779 2.94083C102.255 2.94083 102.698 3.03419 103.109 3.22091C103.529 3.39829 103.893 3.6457 104.201 3.96312C104.519 4.28054 104.766 4.65398 104.943 5.08343C105.121 5.50355 105.21 5.95635 105.21 6.44182C105.21 6.92729 105.121 7.38475 104.943 7.8142C104.775 8.23432 104.537 8.60309 104.229 8.92051C103.921 9.23794 103.557 9.49001 103.137 9.67673C102.717 9.85411 102.264 9.9428 101.779 9.9428C101.284 9.9428 100.826 9.85411 100.406 9.67673C99.9954 9.49001 99.636 9.23794 99.3279 8.92051C99.0198 8.60309 98.7771 8.23432 98.5997 7.8142C98.4317 7.38475 98.3476 6.92729 98.3476 6.44182C98.3476 5.4522 98.6744 4.62597 99.3279 3.96312ZM101.779 4.11716C101.125 4.11716 100.598 4.33189 100.196 4.76134C99.804 5.1908 99.608 5.75096 99.608 6.44182C99.608 7.13268 99.804 7.69284 100.196 8.12229C100.598 8.55174 101.125 8.76647 101.779 8.76647C102.441 8.76647 102.969 8.55174 103.361 8.12229C103.753 7.6835 103.949 7.12334 103.949 6.44182C103.949 5.76029 103.753 5.2048 103.361 4.77535C102.969 4.33656 102.441 4.11716 101.779 4.11716ZM112.255 9.80276H109.832C108.796 9.80276 108.053 9.64872 107.605 9.34063C107.204 9.06989 106.947 8.7478 106.835 8.37436C106.732 7.99159 106.681 7.49211 106.681 6.87594V3.08087H107.913V6.86193C107.913 7.02998 107.918 7.17469 107.927 7.29606C107.937 7.40809 107.969 7.55746 108.025 7.74418C108.081 7.92157 108.161 8.07094 108.264 8.19231C108.366 8.30434 108.516 8.40704 108.712 8.5004C108.908 8.58442 109.146 8.62643 109.426 8.62643H111.022V3.08087H112.255V9.80276ZM113.801 9.80276V5.97969C113.801 4.90605 114.002 4.16384 114.403 3.75306C114.599 3.54767 114.837 3.39362 115.118 3.29093C115.398 3.18823 115.64 3.12755 115.846 3.10888C116.061 3.09021 116.35 3.08087 116.714 3.08087H117.946V4.2572H116.462C116.275 4.2572 116.131 4.26187 116.028 4.27121C115.925 4.28054 115.804 4.31322 115.664 4.36923C115.524 4.42525 115.402 4.51394 115.3 4.63531C115.122 4.85937 115.034 5.3075 115.034 5.97969V9.80276H113.801ZM124.53 9.95681C123.727 9.20059 123.134 8.36502 122.751 7.4501C122.378 6.53518 122.004 5.07877 121.631 3.08087H122.919C123.283 5.33084 123.82 7.03465 124.53 8.19231C125.239 7.03465 125.776 5.33084 126.14 3.08087H127.428C127.055 5.07877 126.677 6.53518 126.294 7.4501C125.921 8.36502 125.333 9.20059 124.53 9.95681ZM129.387 3.96312C130.041 3.28159 130.858 2.94083 131.838 2.94083C132.314 2.94083 132.757 3.03419 133.168 3.22091C133.588 3.39829 133.952 3.6457 134.261 3.96312C134.578 4.28054 134.825 4.65398 135.003 5.08343C135.18 5.50355 135.269 5.95635 135.269 6.44182C135.269 6.92729 135.18 7.38475 135.003 7.8142C134.835 8.23432 134.597 8.60309 134.289 8.92051C133.98 9.23794 133.616 9.49001 133.196 9.67673C132.776 9.85411 132.323 9.9428 131.838 9.9428C131.343 9.9428 130.886 9.85411 130.465 9.67673C130.055 9.49001 129.695 9.23794 129.387 8.92051C129.079 8.60309 128.836 8.23432 128.659 7.8142C128.491 7.38475 128.407 6.92729 128.407 6.44182C128.407 5.4522 128.734 4.62597 129.387 3.96312ZM131.838 4.11716C131.184 4.11716 130.657 4.33189 130.255 4.76134C129.863 5.1908 129.667 5.75096 129.667 6.44182C129.667 7.13268 129.863 7.69284 130.255 8.12229C130.657 8.55174 131.184 8.76647 131.838 8.76647C132.501 8.76647 133.028 8.55174 133.42 8.12229C133.812 7.6835 134.008 7.12334 134.008 6.44182C134.008 5.76029 133.812 5.2048 133.42 4.77535C133.028 4.33656 132.501 4.11716 131.838 4.11716ZM138.561 9.80276H137.328V4.2572H136.18L136.74 3.08087H138.561V9.80276ZM137.272 1.68048C137.151 1.52176 137.09 1.34905 137.09 1.16233C137.09 0.975611 137.151 0.807563 137.272 0.658188C137.394 0.499477 137.581 0.420121 137.833 0.420121C138.085 0.420121 138.271 0.499477 138.393 0.658188C138.514 0.807563 138.575 0.975611 138.575 1.16233C138.575 1.34905 138.514 1.52176 138.393 1.68048C138.271 1.82985 138.085 1.90454 137.833 1.90454C137.581 1.90454 137.394 1.82985 137.272 1.68048ZM145.026 8.33235L145.866 9.15858C145.222 9.6814 144.485 9.9428 143.654 9.9428C142.617 9.9428 141.786 9.61138 141.161 8.94852C140.535 8.27633 140.223 7.44076 140.223 6.44182C140.223 5.46154 140.549 4.63531 141.203 3.96312C141.866 3.28159 142.683 2.94083 143.654 2.94083C144.485 2.94083 145.222 3.20224 145.866 3.72505L145.04 4.56529C144.648 4.26654 144.186 4.11716 143.654 4.11716C143.009 4.11716 142.496 4.33189 142.113 4.76134C141.74 5.18146 141.553 5.74162 141.553 6.44182C141.553 7.14201 141.74 7.70684 142.113 8.13629C142.496 8.55641 143.009 8.76647 143.654 8.76647C144.195 8.76647 144.653 8.62176 145.026 8.33235ZM150.343 2.94083C151.93 3.00618 152.723 3.66437 152.723 4.91539C152.723 6.47449 151.701 7.25405 149.657 7.25405H149.082V6.17574H149.755C150.38 6.17574 150.814 6.08238 151.057 5.89566C151.3 5.69961 151.421 5.37752 151.421 4.92939C151.421 4.63998 151.314 4.42525 151.099 4.28521C150.884 4.13583 150.609 4.06115 150.273 4.06115C149.61 4.06115 149.087 4.29455 148.704 4.76134C148.331 5.22814 148.144 5.7883 148.144 6.44182C148.144 7.13268 148.345 7.69284 148.746 8.12229C149.157 8.55174 149.689 8.76647 150.343 8.76647C150.931 8.76647 151.412 8.62176 151.785 8.33235L152.625 9.15858C151.981 9.6814 151.22 9.9428 150.343 9.9428C149.278 9.9428 148.429 9.63005 147.794 9.00454C147.159 8.37903 146.842 7.57147 146.842 6.58186C146.842 5.48021 147.155 4.58863 147.78 3.9071C148.406 3.22558 149.26 2.90349 150.343 2.94083ZM158.623 2.38486e-06V3.08087H159.813C160.85 3.08087 161.592 3.23491 162.04 3.543C162.441 3.81374 162.693 4.1405 162.796 4.52328C162.908 4.89671 162.964 5.39152 162.964 6.00769V9.80276H161.732V6.0217C161.732 5.85365 161.727 5.71361 161.718 5.60158C161.709 5.48021 161.676 5.33084 161.62 5.15345C161.564 4.96673 161.484 4.81736 161.382 4.70533C161.279 4.58396 161.13 4.48126 160.934 4.39724C160.738 4.30388 160.5 4.2572 160.219 4.2572H158.623V9.80276H157.391V2.38486e-06H158.623ZM167.93 2.94083C169.517 3.00618 170.31 3.66437 170.31 4.91539C170.31 6.47449 169.288 7.25405 167.244 7.25405H166.669V6.17574H167.342C167.967 6.17574 168.401 6.08238 168.644 5.89566C168.887 5.69961 169.008 5.37752 169.008 4.92939C169.008 4.63998 168.901 4.42525 168.686 4.28521C168.471 4.13583 168.196 4.06115 167.86 4.06115C167.197 4.06115 166.674 4.29455 166.291 4.76134C165.918 5.22814 165.731 5.7883 165.731 6.44182C165.731 7.13268 165.932 7.69284 166.333 8.12229C166.744 8.55174 167.276 8.76647 167.93 8.76647C168.518 8.76647 168.999 8.62176 169.372 8.33235L170.212 9.15858C169.568 9.6814 168.807 9.9428 167.93 9.9428C166.865 9.9428 166.016 9.63005 165.381 9.00454C164.746 8.37903 164.429 7.57147 164.429 6.58186C164.429 5.48021 164.741 4.58863 165.367 3.9071C165.993 3.22558 166.847 2.90349 167.93 2.94083ZM175.448 5.85365V7.11401C175.093 6.84326 174.659 6.70789 174.146 6.70789C173.707 6.70789 173.366 6.79658 173.124 6.97397C172.881 7.14201 172.759 7.38475 172.759 7.70217C172.759 8.31834 173.217 8.62643 174.132 8.62643H175.98V5.95168C175.98 4.82203 175.43 4.2572 174.328 4.2572H172.087V3.08087H174.398C175.303 3.08087 175.999 3.30493 176.484 3.75306C176.97 4.20119 177.213 4.84537 177.213 5.6856V9.80276H174.09C173.296 9.80276 172.666 9.62538 172.199 9.27061C171.732 8.91585 171.499 8.3977 171.499 7.71618C171.499 7.03465 171.746 6.5165 172.241 6.16174C172.736 5.80697 173.357 5.62959 174.104 5.62959C174.524 5.62959 174.972 5.70428 175.448 5.85365ZM178.542 9.80276V5.97969C178.542 4.90605 178.743 4.16384 179.144 3.75306C179.34 3.54767 179.578 3.39362 179.858 3.29093C180.139 3.18823 180.381 3.12755 180.587 3.10888C180.801 3.09021 181.091 3.08087 181.455 3.08087H182.687V4.2572H181.203C181.016 4.2572 180.871 4.26187 180.769 4.27121C180.666 4.28054 180.545 4.31322 180.405 4.36923C180.265 4.42525 180.143 4.51394 180.041 4.63531C179.863 4.85937 179.774 5.3075 179.774 5.97969V9.80276H178.542ZM188.845 2.38486e-06H190.105V9.80276H186.814C185.797 9.80276 184.97 9.48067 184.336 8.83649C183.701 8.18297 183.383 7.36141 183.383 6.3718C183.383 5.40086 183.71 4.58863 184.364 3.93511C185.026 3.27226 185.811 2.94083 186.716 2.94083C187.295 2.94083 187.837 3.08087 188.341 3.36095V4.6213C187.874 4.28521 187.332 4.11716 186.716 4.11716C186.156 4.11716 185.68 4.32722 185.288 4.74734C184.905 5.15812 184.714 5.69961 184.714 6.3718C184.714 7.05332 184.896 7.59948 185.26 8.01026C185.633 8.42104 186.151 8.62643 186.814 8.62643H188.845V2.38486e-06ZM196.874 9.80276H195.642V4.2572H194.493L195.054 3.08087H196.874V9.80276ZM195.586 1.68048C195.464 1.52176 195.404 1.34905 195.404 1.16233C195.404 0.975611 195.464 0.807563 195.586 0.658188C195.707 0.499477 195.894 0.420121 196.146 0.420121C196.398 0.420121 196.585 0.499477 196.706 0.658188C196.827 0.807563 196.888 0.975611 196.888 1.16233C196.888 1.34905 196.827 1.52176 196.706 1.68048C196.585 1.82985 196.398 1.90454 196.146 1.90454C195.894 1.90454 195.707 1.82985 195.586 1.68048ZM198.816 3.08087H201.239C202.275 3.08087 203.017 3.23491 203.465 3.543C203.867 3.81374 204.119 4.1405 204.222 4.52328C204.334 4.89671 204.39 5.39152 204.39 6.00769V9.80276H203.157V6.0217C203.157 5.85365 203.153 5.71361 203.143 5.60158C203.134 5.48021 203.101 5.33084 203.045 5.15345C202.989 4.96673 202.91 4.81736 202.807 4.70533C202.704 4.58396 202.555 4.48126 202.359 4.39724C202.163 4.30388 201.925 4.2572 201.645 4.2572H200.048V9.80276H198.816V3.08087ZM209.135 3.08087H210.367V6.59586C210.367 7.35207 210.484 7.87955 210.717 8.17831C210.951 8.47706 211.38 8.62643 212.005 8.62643H213.476V3.08087H214.708V9.46667C214.708 10.6337 214.4 11.5112 213.784 12.0994C213.177 12.6969 212.22 12.9957 210.913 12.9957H209.905V11.8193H210.787C212.496 11.8193 213.392 11.1471 213.476 9.80276H212.3C211.077 9.80276 210.241 9.58804 209.793 9.15858C209.354 8.72913 209.135 7.85621 209.135 6.53984V3.08087ZM217.09 3.96312C217.743 3.28159 218.56 2.94083 219.54 2.94083C220.016 2.94083 220.46 3.03419 220.871 3.22091C221.291 3.39829 221.655 3.6457 221.963 3.96312C222.28 4.28054 222.528 4.65398 222.705 5.08343C222.883 5.50355 222.971 5.95635 222.971 6.44182C222.971 6.92729 222.883 7.38475 222.705 7.8142C222.537 8.23432 222.299 8.60309 221.991 8.92051C221.683 9.23794 221.319 9.49001 220.899 9.67673C220.479 9.85411 220.026 9.9428 219.54 9.9428C219.045 9.9428 218.588 9.85411 218.168 9.67673C217.757 9.49001 217.398 9.23794 217.09 8.92051C216.781 8.60309 216.539 8.23432 216.361 7.8142C216.193 7.38475 216.109 6.92729 216.109 6.44182C216.109 5.4522 216.436 4.62597 217.09 3.96312ZM219.54 4.11716C218.887 4.11716 218.359 4.33189 217.958 4.76134C217.566 5.1908 217.37 5.75096 217.37 6.44182C217.37 7.13268 217.566 7.69284 217.958 8.12229C218.359 8.55174 218.887 8.76647 219.54 8.76647C220.203 8.76647 220.731 8.55174 221.123 8.12229C221.515 7.6835 221.711 7.12334 221.711 6.44182C221.711 5.76029 221.515 5.2048 221.123 4.77535C220.731 4.33656 220.203 4.11716 219.54 4.11716ZM230.016 9.80276H227.594C226.557 9.80276 225.815 9.64872 225.367 9.34063C224.966 9.06989 224.709 8.7478 224.597 8.37436C224.494 7.99159 224.443 7.49211 224.443 6.87594V3.08087H225.675V6.86193C225.675 7.02998 225.68 7.17469 225.689 7.29606C225.698 7.40809 225.731 7.55746 225.787 7.74418C225.843 7.92157 225.922 8.07094 226.025 8.19231C226.128 8.30434 226.277 8.40704 226.473 8.5004C226.669 8.58442 226.907 8.62643 227.188 8.62643H228.784V3.08087H230.016V9.80276ZM231.563 9.80276V5.97969C231.563 4.90605 231.764 4.16384 232.165 3.75306C232.361 3.54767 232.599 3.39362 232.879 3.29093C233.159 3.18823 233.402 3.12755 233.607 3.10888C233.822 3.09021 234.112 3.08087 234.476 3.08087H235.708V4.2572H234.224C234.037 4.2572 233.892 4.26187 233.789 4.27121C233.687 4.28054 233.565 4.31322 233.425 4.36923C233.285 4.42525 233.164 4.51394 233.061 4.63531C232.884 4.85937 232.795 5.3075 232.795 5.97969V9.80276H231.563ZM244.476 8.33235L245.316 9.15858C244.672 9.6814 243.934 9.9428 243.104 9.9428C242.067 9.9428 241.236 9.61138 240.611 8.94852C239.985 8.27633 239.673 7.44076 239.673 6.44182C239.673 5.46154 239.999 4.63531 240.653 3.96312C241.316 3.28159 242.133 2.94083 243.104 2.94083C243.934 2.94083 244.672 3.20224 245.316 3.72505L244.49 4.56529C244.098 4.26654 243.636 4.11716 243.104 4.11716C242.459 4.11716 241.946 4.33189 241.563 4.76134C241.19 5.18146 241.003 5.74162 241.003 6.44182C241.003 7.14201 241.19 7.70684 241.563 8.13629C241.946 8.55641 242.459 8.76647 243.104 8.76647C243.645 8.76647 244.102 8.62176 244.476 8.33235ZM247.272 3.96312C247.925 3.28159 248.742 2.94083 249.723 2.94083C250.199 2.94083 250.642 3.03419 251.053 3.22091C251.473 3.39829 251.837 3.6457 252.145 3.96312C252.463 4.28054 252.71 4.65398 252.887 5.08343C253.065 5.50355 253.154 5.95635 253.154 6.44182C253.154 6.92729 253.065 7.38475 252.887 7.8142C252.719 8.23432 252.481 8.60309 252.173 8.92051C251.865 9.23794 251.501 9.49001 251.081 9.67673C250.661 9.85411 250.208 9.9428 249.723 9.9428C249.228 9.9428 248.77 9.85411 248.35 9.67673C247.939 9.49001 247.58 9.23794 247.272 8.92051C246.964 8.60309 246.721 8.23432 246.544 7.8142C246.376 7.38475 246.292 6.92729 246.292 6.44182C246.292 5.4522 246.618 4.62597 247.272 3.96312ZM249.723 4.11716C249.069 4.11716 248.542 4.33189 248.14 4.76134C247.748 5.1908 247.552 5.75096 247.552 6.44182C247.552 7.13268 247.748 7.69284 248.14 8.12229C248.542 8.55174 249.069 8.76647 249.723 8.76647C250.385 8.76647 250.913 8.55174 251.305 8.12229C251.697 7.6835 251.893 7.12334 251.893 6.44182C251.893 5.76029 251.697 5.2048 251.305 4.77535C250.913 4.33656 250.385 4.11716 249.723 4.11716ZM254.695 3.08087H260.871C261.534 3.08087 262.061 3.20691 262.453 3.45898C262.855 3.71105 263.116 4.03781 263.237 4.43925C263.368 4.8407 263.434 5.3215 263.434 5.88166V9.80276H262.201V5.88166C262.201 5.15345 261.982 4.67265 261.543 4.43925C261.319 4.31788 260.866 4.2572 260.185 4.2572H259.61V9.80276H258.378V4.2572H255.927V9.80276H254.695V3.08087ZM265.184 3.08087H271.36C272.023 3.08087 272.55 3.20691 272.943 3.45898C273.344 3.71105 273.605 4.03781 273.727 4.43925C273.857 4.8407 273.923 5.3215 273.923 5.88166V9.80276H272.69V5.88166C272.69 5.15345 272.471 4.67265 272.032 4.43925C271.808 4.31788 271.355 4.2572 270.674 4.2572H270.1V9.80276H268.867V4.2572H266.417V9.80276H265.184V3.08087ZM281.177 9.80276H278.755C277.718 9.80276 276.976 9.64872 276.528 9.34063C276.126 9.06989 275.87 8.7478 275.758 8.37436C275.655 7.99159 275.604 7.49211 275.604 6.87594V3.08087H276.836V6.86193C276.836 7.02998 276.841 7.17469 276.85 7.29606C276.859 7.40809 276.892 7.55746 276.948 7.74418C277.004 7.92157 277.083 8.07094 277.186 8.19231C277.289 8.30434 277.438 8.40704 277.634 8.5004C277.83 8.58442 278.068 8.62643 278.348 8.62643H279.945V3.08087H281.177V9.80276ZM283.004 3.08087H285.427C286.463 3.08087 287.205 3.23491 287.653 3.543C288.055 3.81374 288.307 4.1405 288.409 4.52328C288.521 4.89671 288.577 5.39152 288.577 6.00769V9.80276H287.345V6.0217C287.345 5.85365 287.34 5.71361 287.331 5.60158C287.322 5.48021 287.289 5.33084 287.233 5.15345C287.177 4.96673 287.098 4.81736 286.995 4.70533C286.892 4.58396 286.743 4.48126 286.547 4.39724C286.351 4.30388 286.113 4.2572 285.833 4.2572H284.236V9.80276H283.004V3.08087ZM292.085 9.80276H290.852V4.2572H289.704L290.264 3.08087H292.085V9.80276ZM290.796 1.68048C290.675 1.52176 290.614 1.34905 290.614 1.16233C290.614 0.975611 290.675 0.807563 290.796 0.658188C290.918 0.499477 291.104 0.420121 291.356 0.420121C291.608 0.420121 291.795 0.499477 291.916 0.658188C292.038 0.807563 292.099 0.975611 292.099 1.16233C292.099 1.34905 292.038 1.52176 291.916 1.68048C291.795 1.82985 291.608 1.90454 291.356 1.90454C291.104 1.90454 290.918 1.82985 290.796 1.68048ZM293.256 4.2572L295.763 1.7505V3.08087H297.653V4.2572H295.763V7.14201C295.763 7.46877 295.814 7.73952 295.917 7.95424C296.029 8.16897 296.188 8.32301 296.393 8.41637C296.599 8.5004 296.79 8.55641 296.967 8.58442C297.154 8.61243 297.383 8.62643 297.653 8.62643V9.80276C296.58 9.80276 295.786 9.59737 295.273 9.18659C294.759 8.77581 294.503 8.09428 294.503 7.14201V4.2572H293.256ZM298.779 3.08087H300.011V6.59586C300.011 7.35207 300.128 7.87955 300.361 8.17831C300.595 8.47706 301.024 8.62643 301.65 8.62643H303.12V3.08087H304.353V9.46667C304.353 10.6337 304.045 11.5112 303.428 12.0994C302.822 12.6969 301.865 12.9957 300.558 12.9957H299.549V11.8193H300.432C302.14 11.8193 303.036 11.1471 303.12 9.80276H301.944C300.721 9.80276 299.885 9.58804 299.437 9.15858C298.998 8.72913 298.779 7.85621 298.779 6.53984V3.08087ZM305.516 9.69073C305.348 9.52268 305.264 9.31729 305.264 9.07456C305.264 8.83182 305.348 8.62643 305.516 8.45838C305.684 8.29034 305.889 8.20631 306.132 8.20631C306.375 8.20631 306.58 8.29034 306.748 8.45838C306.916 8.62643 307 8.83182 307 9.07456C307 9.31729 306.916 9.52268 306.748 9.69073C306.58 9.85878 306.375 9.9428 306.132 9.9428C305.889 9.9428 305.684 9.85878 305.516 9.69073Z" fill="black"/>
</svg>
